<svg width="94.504" height="94.504" xmlns="http://www.w3.org/2000/svg">

 <g>
  <title>background</title>
  <rect fill="none" id="canvas_background" height="402" width="582" y="-1" x="-1"/>
 </g>
 <g>
  <title>Layer 1</title>
  <g id="svg_1">
   <g id="svg_2">
    <path fill="#1f3890" id="svg_3" d="m93.918,45.833l-24.119,-24.119c-0.75,-0.75 -2.077,-0.75 -2.827,0l-5.229,5.229c-0.781,0.781 -0.781,2.047 0,2.828l17.477,17.475l-17.476,17.478c-0.781,0.781 -0.781,2.047 0,2.828l5.229,5.229c0.375,0.375 0.884,0.587 1.414,0.587c0.529,0 1.039,-0.212 1.414,-0.587l24.117,-24.118c0.781,-0.782 0.781,-2.049 0,-2.83z"/>
    <path fill="#1f3890" id="svg_4" d="m32.759,64.724l-17.474,-17.476l17.477,-17.475c0.375,-0.375 0.586,-0.883 0.586,-1.414c0,-0.53 -0.21,-1.039 -0.586,-1.414l-5.229,-5.229c-0.375,-0.375 -0.884,-0.586 -1.414,-0.586c-0.53,0 -1.039,0.211 -1.414,0.586l-24.12,24.117c-0.781,0.781 -0.781,2.047 0,2.829l24.119,24.118c0.375,0.375 0.884,0.587 1.414,0.587c0.53,0 1.039,-0.212 1.414,-0.587l5.229,-5.229c0.781,-0.78 0.781,-2.046 -0.002,-2.827z"/>
    <path fill="#1f3890" id="svg_5" d="m60.967,13.6c-0.254,-0.466 -0.682,-0.812 -1.19,-0.962l-4.239,-1.251c-1.058,-0.314 -2.172,0.293 -2.484,1.352l-19.679,66.643c-0.15,0.509 -0.092,1.056 0.161,1.521c0.253,0.467 0.682,0.812 1.19,0.963l4.239,1.251c0.189,0.056 0.38,0.083 0.567,0.083c0.863,0 1.66,-0.564 1.917,-1.435l19.679,-66.644c0.15,-0.509 0.093,-1.056 -0.161,-1.521z"/>
   </g>
  </g>
  <g id="svg_6"/>
  <g id="svg_7"/>
  <g id="svg_8"/>
  <g id="svg_9"/>
  <g id="svg_10"/>
  <g id="svg_11"/>
  <g id="svg_12"/>
  <g id="svg_13"/>
  <g id="svg_14"/>
  <g id="svg_15"/>
  <g id="svg_16"/>
  <g id="svg_17"/>
  <g id="svg_18"/>
  <g id="svg_19"/>
  <g id="svg_20"/>
 </g>
</svg>