<?xml version="1.0" encoding="iso-8859-1"?>
<!-- Generator: Adobe Illustrator 19.0.0, SVG Export Plug-In . SVG Version: 6.00 Build 0)  -->
<svg version="1.1" id="Capa_1" xmlns="http://www.w3.org/2000/svg" xmlns:xlink="http://www.w3.org/1999/xlink" x="0px" y="0px"
	 viewBox="0 0 463.935 463.935" style="enable-background:new 0 0 463.935 463.935;" xml:space="preserve">
<g>
	<polygon style="fill:#D4E1F4;" points="421.616,102.4 329.143,102.4 329.143,15.673 	"/>
	<polygon style="fill:#D4E1F4;" points="421.616,102.4 421.616,376.686 321.829,376.686 321.829,173.976 229.355,87.249 
		142.106,87.249 142.106,15.673 329.143,15.673 329.143,102.4 	"/>
</g>
<g>
	<polygon style="fill:#4DCFE0;" points="321.829,173.976 229.355,173.976 229.355,87.249 	"/>
	<polygon style="fill:#4DCFE0;" points="321.829,376.686 321.829,448.261 42.318,448.261 42.318,236.147 42.318,87.249 
		142.106,87.249 229.355,87.249 229.355,173.976 321.829,173.976 	"/>
</g>
<g>
	<path style="fill:#3A2C51;" d="M204.278,255.478h-96.653c-8.882,0-15.673-6.792-15.673-15.673s6.792-15.673,15.673-15.673h96.653
		c8.882,0,15.673,6.792,15.673,15.673S213.159,255.478,204.278,255.478z"/>
	<path style="fill:#3A2C51;" d="M256.522,317.127H107.624c-8.882,0-15.673-6.792-15.673-15.673s6.792-15.673,15.673-15.673h148.898
		c8.882,0,15.673,6.792,15.673,15.673S265.404,317.127,256.522,317.127z"/>
	<path style="fill:#3A2C51;" d="M256.522,378.775H107.624c-8.882,0-15.673-6.792-15.673-15.673s6.792-15.673,15.673-15.673h148.898
		c8.882,0,15.673,6.792,15.673,15.673S265.404,378.775,256.522,378.775z"/>
	<path style="fill:#3A2C51;" d="M432.588,90.906L340.114,4.18C336.98,1.567,333.322,0,329.143,0H142.106
		c-8.882,0-15.673,6.792-15.673,15.673v55.902H42.318c-8.882,0-15.673,6.792-15.673,15.673v361.012
		c0,8.882,6.792,15.673,15.673,15.673h279.51c8.882,0,15.673-6.792,15.673-15.673v-55.902h84.114
		c8.882,0,15.673-6.792,15.673-15.673V102.4C437.29,98.22,435.722,94.041,432.588,90.906z M344.816,51.722l37.094,35.004h-37.094
		V51.722z M57.992,432.588V102.922h155.69v71.053c0,8.882,6.792,15.673,15.673,15.673h76.8v242.939H57.992z M245.029,123.298
		l37.094,35.004h-37.094V123.298z M337.502,361.012V173.976c0-4.18-1.567-8.359-4.702-11.494l-92.473-86.727
		c-3.135-2.612-6.792-4.18-10.971-4.18H157.78V31.347h155.69V102.4c0,8.882,6.792,15.673,15.673,15.673h76.8v242.939H337.502z"/>
</g>
<g>
</g>
<g>
</g>
<g>
</g>
<g>
</g>
<g>
</g>
<g>
</g>
<g>
</g>
<g>
</g>
<g>
</g>
<g>
</g>
<g>
</g>
<g>
</g>
<g>
</g>
<g>
</g>
<g>
</g>
</svg>
